<svg width="24" height="24" viewBox="0 0 24 24" fill="none" xmlns="http://www.w3.org/2000/svg">
<path d="M12.05 22C11.1 22 10.2583 21.7 9.52497 21.1C8.79163 20.5 8.3333 19.7333 8.14997 18.8C7.26663 19.0833 6.37497 19.0667 5.47497 18.75C4.57497 18.4333 3.8833 17.8833 3.39997 17.1C2.89997 16.3 2.71663 15.4125 2.84997 14.4375C2.9833 13.4625 3.41663 12.65 4.14997 12C3.44997 11.3667 3.02913 10.5833 2.88747 9.65C2.7458 8.71667 2.89997 7.85 3.34997 7.05C3.79997 6.25 4.47913 5.67083 5.38747 5.3125C6.2958 4.95417 7.19997 4.91667 8.09997 5.2C8.2833 4.26667 8.74163 3.5 9.47497 2.9C10.2083 2.3 11.05 2 12 2C12.95 2 13.7916 2.3 14.525 2.9C15.2583 3.5 15.7166 4.26667 15.9 5.2C16.8333 4.91667 17.7375 4.94167 18.6125 5.275C19.4875 5.60833 20.1666 6.2 20.65 7.05C21.1 7.88333 21.2625 8.75417 21.1375 9.6625C21.0125 10.5708 20.5833 11.35 19.85 12C20.5833 12.65 21.0208 13.4542 21.1625 14.4125C21.3041 15.3708 21.15 16.2667 20.7 17.1C20.2166 17.95 19.5375 18.5167 18.6625 18.8C17.7875 19.0833 16.8833 19.0833 15.95 18.8C15.7666 19.7333 15.3083 20.5 14.575 21.1C13.8416 21.7 13 22 12.05 22ZM12.05 20C12.8333 20 13.4208 19.6625 13.8125 18.9875C14.2041 18.3125 14.2 17.65 13.8 17L13.1 15.85C12.9166 15.9 12.7416 15.9375 12.575 15.9625C12.4083 15.9875 12.2333 16 12.05 16C11.8833 16 11.7125 15.9875 11.5375 15.9625C11.3625 15.9375 11.1833 15.9 11 15.85L10.3 17C9.89997 17.65 9.8958 18.3125 10.2875 18.9875C10.6791 19.6625 11.2666 20 12.05 20ZM5.04997 16C5.44997 16.6833 6.03747 17.025 6.81247 17.025C7.58747 17.025 8.16663 16.6833 8.54997 16L9.19997 14.85C9.06663 14.7167 8.94163 14.575 8.82497 14.425C8.7083 14.275 8.6083 14.1167 8.52497 13.95C8.44163 13.8 8.36663 13.6458 8.29997 13.4875C8.2333 13.3292 8.17497 13.1667 8.12497 13H6.79997C6.01663 13 5.4333 13.3292 5.04997 13.9875C4.66663 14.6458 4.66663 15.3167 5.04997 16ZM15.45 16C15.8333 16.6833 16.4125 17.025 17.1875 17.025C17.9625 17.025 18.55 16.6833 18.95 16C19.3333 15.3167 19.3333 14.6458 18.95 13.9875C18.5666 13.3292 17.9833 13 17.2 13H15.875C15.8416 13.1667 15.7875 13.3292 15.7125 13.4875C15.6375 13.6458 15.5583 13.8 15.475 13.95C15.3916 14.1167 15.2916 14.275 15.175 14.425C15.0583 14.575 14.9333 14.7167 14.8 14.85L15.45 16ZM8.12497 11C8.17497 10.8167 8.23747 10.6375 8.31247 10.4625C8.38747 10.2875 8.46663 10.125 8.54997 9.975C8.6333 9.825 8.72913 9.68333 8.83747 9.55C8.9458 9.41667 9.06663 9.28333 9.19997 9.15L8.54997 8C8.16663 7.31667 7.58747 6.975 6.81247 6.975C6.03747 6.975 5.44997 7.31667 5.04997 8C4.66663 8.68333 4.66663 9.35417 5.04997 10.0125C5.4333 10.6708 6.01663 11 6.79997 11H8.12497ZM17.2 11C17.9833 11 18.5666 10.6708 18.95 10.0125C19.3333 9.35417 19.3333 8.68333 18.95 8C18.55 7.31667 17.9625 6.975 17.1875 6.975C16.4125 6.975 15.8333 7.31667 15.45 8L14.8 9.15C14.9333 9.28333 15.0541 9.41667 15.1625 9.55C15.2708 9.68333 15.3666 9.825 15.45 9.975C15.5333 10.125 15.6125 10.2875 15.6875 10.4625C15.7625 10.6375 15.825 10.8167 15.875 11H17.2ZM10.925 8.15C11.1083 8.1 11.2875 8.0625 11.4625 8.0375C11.6375 8.0125 11.8166 8 12 8C12.1833 8 12.3625 8.0125 12.5375 8.0375C12.7125 8.0625 12.8916 8.1 13.075 8.15L13.75 7C14.1333 6.35 14.1333 5.6875 13.75 5.0125C13.3666 4.3375 12.7833 4 12 4C11.2166 4 10.6333 4.33333 10.25 5C9.86663 5.66667 9.86663 6.33333 10.25 7L10.925 8.15ZM12 14C12.55 14 13.0208 13.8042 13.4125 13.4125C13.8041 13.0208 14 12.55 14 12C14 11.45 13.8041 10.9792 13.4125 10.5875C13.0208 10.1958 12.55 10 12 10C11.45 10 10.9791 10.1958 10.5875 10.5875C10.1958 10.9792 9.99997 11.45 9.99997 12C9.99997 12.55 10.1958 13.0208 10.5875 13.4125C10.9791 13.8042 11.45 14 12 14Z" fill="#80A1D4"/>
</svg>
