<svg width="70" height="70" viewBox="0 0 70 70" fill="none" xmlns="http://www.w3.org/2000/svg">
<g clip-path="url(#clip0_527_287)">
<path d="M49.5833 14.5833H8.74999C5.54166 14.5833 2.91666 17.1791 2.91666 20.4166V46.6666H8.74999C8.74999 51.5083 12.6583 55.4166 17.5 55.4166C22.3417 55.4166 26.25 51.5083 26.25 46.6666H43.75C43.75 51.5083 47.6583 55.4166 52.5 55.4166C57.3417 55.4166 61.25 51.5083 61.25 46.6666H67.0833V32.0833L49.5833 14.5833ZM43.75 20.4166H46.6667L55.4167 29.1666H43.75V20.4166ZM26.25 20.4166H37.9167V29.1666H26.25V20.4166ZM8.74999 20.4166H20.4167V29.1666H8.74999V20.4166ZM17.5 50.3125C15.4875 50.3125 13.8542 48.6791 13.8542 46.6666C13.8542 44.6541 15.4875 43.0208 17.5 43.0208C19.5125 43.0208 21.1458 44.6541 21.1458 46.6666C21.1458 48.6791 19.5125 50.3125 17.5 50.3125ZM52.5 50.3125C50.4875 50.3125 48.8542 48.6791 48.8542 46.6666C48.8542 44.6541 50.4875 43.0208 52.5 43.0208C54.5125 43.0208 56.1458 44.6541 56.1458 46.6666C56.1458 48.6791 54.5125 50.3125 52.5 50.3125ZM61.25 40.8333H58.975C57.3708 39.0541 55.0667 37.9166 52.5 37.9166C49.9333 37.9166 47.6292 39.0541 46.025 40.8333H23.975C22.3708 39.0541 20.0958 37.9166 17.5 37.9166C14.9042 37.9166 12.6292 39.0541 11.025 40.8333H8.74999V35H61.25V40.8333Z" fill="white"/>
</g>
<defs>
<clipPath id="clip0_527_287">
<rect width="70" height="70" fill="white"/>
</clipPath>
</defs>
</svg>
