<svg width="70" height="70" viewBox="0 0 70 70" fill="none" xmlns="http://www.w3.org/2000/svg">
<g clip-path="url(#clip0_527_284)">
<path d="M55.4167 2.91669H14.5833C11.375 2.91669 8.77917 5.54169 8.77917 8.75002L8.75 46.4625C8.75 48.475 9.77083 50.2542 11.3167 51.3042L35 67.0834L58.6542 51.3042C60.2 50.2542 61.2208 48.475 61.2208 46.4625L61.25 8.75002C61.25 5.54169 58.625 2.91669 55.4167 2.91669ZM35 60.0834L14.5833 46.4917V8.75002H55.4167V46.4625L35 60.0834ZM29.1375 38.4417L21.6125 30.8875L17.5 35L29.1667 46.6667L52.5 23.3334L48.3583 19.1917L29.1375 38.4417Z" fill="white"/>
</g>
<defs>
<clipPath id="clip0_527_284">
<rect width="70" height="70" fill="white"/>
</clipPath>
</defs>
</svg>
