<svg width="70" height="70" viewBox="0 0 70 70" fill="none" xmlns="http://www.w3.org/2000/svg">
<g clip-path="url(#clip0_523_281)">
<path d="M35 64.1667C38.2084 64.1667 40.8334 61.5417 40.8334 58.3334H29.1667C29.1667 61.5417 31.7917 64.1667 35 64.1667ZM52.5 46.6667V32.0834C52.5 23.1292 47.7459 15.6334 39.375 13.65V11.6667C39.375 9.24585 37.4209 7.29169 35 7.29169C32.5792 7.29169 30.625 9.24585 30.625 11.6667V13.65C22.2834 15.6334 17.5 23.1 17.5 32.0834V46.6667L11.6667 52.5V55.4167H58.3334V52.5L52.5 46.6667ZM46.6667 49.5834H23.3334V32.0834C23.3334 24.85 27.7375 18.9584 35 18.9584C42.2625 18.9584 46.6667 24.85 46.6667 32.0834V49.5834Z" fill="white"/>
</g>
<defs>
<clipPath id="clip0_523_281">
<rect width="70" height="70" fill="white"/>
</clipPath>
</defs>
</svg>
