<svg width="70" height="70" viewBox="0 0 70 70" fill="none" xmlns="http://www.w3.org/2000/svg">
<g clip-path="url(#clip0_523_272)">
<path d="M61.25 35.6417C61.25 19.6292 48.825 8.75 35 8.75C21.3208 8.75 8.75 19.3958 8.75 35.8167C7 36.8083 5.83333 38.675 5.83333 40.8333V46.6667C5.83333 49.875 8.45833 52.5 11.6667 52.5H14.5833V34.7083C14.5833 23.4208 23.7125 14.2917 35 14.2917C46.2875 14.2917 55.4167 23.4208 55.4167 34.7083V55.4167H32.0833V61.25H55.4167C58.625 61.25 61.25 58.625 61.25 55.4167V51.8583C62.9708 50.9542 64.1667 49.175 64.1667 47.075V40.3667C64.1667 38.325 62.9708 36.5458 61.25 35.6417Z" fill="white"/>
<path d="M26.25 40.8333C27.8608 40.8333 29.1667 39.5275 29.1667 37.9167C29.1667 36.3058 27.8608 35 26.25 35C24.6392 35 23.3333 36.3058 23.3333 37.9167C23.3333 39.5275 24.6392 40.8333 26.25 40.8333Z" fill="white"/>
<path d="M43.75 40.8333C45.3608 40.8333 46.6667 39.5275 46.6667 37.9167C46.6667 36.3058 45.3608 35 43.75 35C42.1392 35 40.8333 36.3058 40.8333 37.9167C40.8333 39.5275 42.1392 40.8333 43.75 40.8333Z" fill="white"/>
<path d="M52.5 32.1708C51.1 23.8583 43.8667 17.5 35.1458 17.5C26.3083 17.5 16.8 24.8208 17.5583 36.3125C24.7625 33.3667 30.1875 26.95 31.7333 19.1333C35.5542 26.8042 43.4 32.0833 52.5 32.1708Z" fill="white"/>
</g>
<defs>
<clipPath id="clip0_523_272">
<rect width="70" height="70" fill="white"/>
</clipPath>
</defs>
</svg>
